<svg xmlns="http://www.w3.org/2000/svg" width="122" height="110" viewBox="0 -30 122 110"><path fill="#7643BA" d="M50.097 20H0v-50h50.097v50zM45.65-25.66H4.313v41.2H45.65v-41.2z"/><path fill="#808285" d="M18.472 3.71H10.83v-17.455h6.792c1.182 0 2.2.14 3.06.424.857.282 1.502.665 1.935 1.147.783.9 1.174 1.915 1.174 3.047 0 1.366-.44 2.38-1.323 3.047-.3.235-.508.38-.624.438-.117.06-.325.154-.625.287 1.082.233 1.944.72 2.585 1.46.64.74.96 1.66.96 2.76 0 1.216-.416 2.29-1.248 3.223C22.55 3.17 20.87 3.71 18.472 3.71M14.726-6.676h1.848c1.082 0 1.885-.116 2.41-.35.524-.233.787-.737.787-1.512 0-.772-.24-1.285-.723-1.534-.483-.25-1.3-.375-2.448-.375h-1.874v3.773zm0 7.09h2.672c1.115 0 1.95-.136 2.51-.41.557-.274.836-.815.836-1.622 0-.808-.295-1.34-.886-1.6-.59-.257-1.536-.386-2.834-.386h-2.297v4.02zM39.05-13.745v3.47h-8.69v3.598h7.816v3.322H30.36v3.62h8.965v3.446H26.463v-17.455zM71.28-7.277l-4.72 9.54h-2.324l-4.693-9.54V3.71h-3.896v-17.455h5.27l4.494 9.59 4.522-9.59h5.245V3.71H71.28zM90.836 3.71L89.21-.06h-7.315L80.27 3.71h-4.145l7.542-17.455h3.77L94.98 3.71h-4.144zM85.564-8.55l-2.197 5.07h4.37l-2.173-5.07zM101.448-10.374V3.71h-3.895v-14.084h-4.946v-3.37h13.788v3.37zM120.753-13.745v3.47h-8.69v3.598h7.817v3.322h-7.818v3.62h8.963v3.446h-12.858v-17.455z"/><g fill="#808285"><path d="M90.945 15.344a.793.793 0 0 1-.23-.572.78.78 0 0 1 .23-.566c.156-.154.346-.23.568-.23s.414.076.572.23a.77.77 0 0 1 .237.566c0 .225-.08.416-.237.572-.158.158-.35.237-.572.237s-.41-.078-.568-.236zM98.057 14.34c.438 0 .816-.074 1.133-.222.316-.146.646-.384.994-.706l.82.84c-.8.887-1.77 1.33-2.91 1.33-1.14 0-2.088-.368-2.84-1.102-.75-.735-1.128-1.664-1.128-2.787 0-1.12.384-2.057 1.15-2.805.765-.75 1.733-1.123 2.903-1.123s2.145.432 2.93 1.295l-.81.885c-.358-.346-.7-.586-1.02-.723-.32-.138-.697-.205-1.13-.205-.762 0-1.402.246-1.92.738-.52.493-.777 1.123-.777 1.89 0 .768.258 1.406.77 1.92.517.516 1.13.775 1.834.775zM109.25 14.453c-.764.746-1.706 1.117-2.827 1.117-1.124 0-2.065-.37-2.83-1.117-.763-.745-1.144-1.674-1.144-2.786 0-1.11.38-2.04 1.144-2.784s1.705-1.115 2.83-1.115c1.12 0 2.062.37 2.827 1.115.764.744 1.145 1.674 1.145 2.784 0 1.112-.38 2.04-1.144 2.786zm-.934-4.724a2.538 2.538 0 0 0-1.895-.798c-.75 0-1.38.266-1.895.797-.515.534-.77 1.18-.77 1.937 0 .76.256 1.406.77 1.938.516.533 1.146.8 1.896.8.748 0 1.38-.267 1.896-.8.516-.53.77-1.178.77-1.938 0-.757-.254-1.403-.77-1.938zM113.816 15.494h-1.274V7.95h1.987l2.276 4.74 2.276-4.74h1.976v7.544h-1.273V9.6l-2.635 5.235h-.71L113.815 9.6v5.894z"/></g><path fill="#462976" d="M49.94 80H0V30.156h49.94V80zm-4.433-45.518H4.3v41.07h41.207v-41.07z"/><path fill="#FFF" d="M18.414 63.762h-7.618V46.36h6.77c1.18 0 2.196.142 3.05.423.856.283 1.5.664 1.93 1.146.78.895 1.17 1.906 1.17 3.036 0 1.36-.44 2.372-1.32 3.036-.297.232-.505.377-.62.436-.117.06-.325.153-.624.286 1.08.23 1.938.72 2.577 1.457.638.738.957 1.656.957 2.75 0 1.214-.415 2.283-1.245 3.212-.962 1.08-2.638 1.62-5.028 1.62M14.68 53.406h1.84c1.08 0 1.88-.116 2.404-.35.522-.232.784-.734.784-1.506s-.24-1.282-.722-1.53c-.48-.25-1.294-.374-2.44-.374H14.68v3.76zm0 7.07h2.663c1.11 0 1.945-.138 2.502-.41.556-.273.834-.813.834-1.618 0-.805-.296-1.336-.885-1.594-.59-.258-1.53-.387-2.826-.387h-2.292v4.01zM38.927 46.36v3.46h-8.663v3.585h7.792v3.312h-7.792v3.61H39.2v3.435H26.38V46.36zM71.057 52.81l-4.705 9.508h-2.315l-4.682-9.51v10.954h-3.882V46.36h5.252l4.482 9.56 4.506-9.56h5.226v17.402h-3.883zM90.55 63.762l-1.618-3.76h-7.295l-1.617 3.76h-4.133l7.518-17.4h3.76l7.52 17.4h-4.136zM85.296 51.54l-2.19 5.054h4.356l-2.166-5.055zM101.13 49.722v14.04h-3.884v-14.04h-4.93V46.36h13.743v3.362zM120.375 46.36v3.46h-8.664v3.585h7.792v3.312h-7.79v3.61h8.936v3.435h-12.822V46.36z"/><g fill="#FFF"><path d="M90.662 75.406a.788.788 0 0 1-.232-.57c0-.222.078-.41.232-.564s.342-.23.564-.23c.22 0 .41.076.57.23s.236.343.236.564c0 .223-.08.412-.237.57s-.35.236-.57.236a.753.753 0 0 1-.563-.236zM97.748 74.405c.438 0 .814-.073 1.13-.222.315-.146.646-.38.99-.705l.817.84c-.796.883-1.765 1.324-2.9 1.324-1.137 0-2.08-.365-2.83-1.1-.748-.73-1.123-1.656-1.123-2.773 0-1.122.38-2.054 1.145-2.8.766-.746 1.73-1.12 2.896-1.12 1.164 0 2.14.432 2.92 1.292l-.807.883c-.357-.344-.697-.586-1.02-.723-.316-.136-.69-.203-1.122-.203-.762 0-1.397.245-1.916.735-.516.49-.774 1.12-.774 1.885 0 .764.256 1.4.77 1.914s1.12.77 1.824.77zM108.908 74.518c-.762.742-1.7 1.113-2.82 1.113s-2.06-.37-2.82-1.112c-.76-.742-1.14-1.668-1.14-2.775s.38-2.033 1.14-2.775c.762-.744 1.7-1.115 2.82-1.115s2.06.37 2.82 1.115c.76.742 1.14 1.668 1.14 2.775s-.38 2.032-1.14 2.775zm-.93-4.707c-.515-.53-1.144-.796-1.89-.796s-1.377.266-1.89.797c-.51.53-.77 1.176-.77 1.933s.26 1.4.77 1.932c.513.532 1.144.797 1.89.797s1.375-.266 1.89-.797c.51-.53.77-1.175.77-1.932s-.26-1.4-.77-1.932zM113.46 75.557h-1.27v-7.52h1.978l2.27 4.724 2.272-4.724h1.97v7.52h-1.272v-5.874l-2.625 5.22h-.71l-2.615-5.22v5.875z"/></g></svg>