<?xml version="1.0" encoding="UTF-8" standalone="no"?>
<svg width="34px" height="28px" viewBox="0 0 34 28" version="1.1" xmlns="http://www.w3.org/2000/svg" xmlns:xlink="http://www.w3.org/1999/xlink">
    <!-- Generator: Sketch 3.7.1 (28215) - http://www.bohemiancoding.com/sketch -->
    <title>Shape</title>
    <desc>Created with Sketch.</desc>
    <defs></defs>
    <g id="Page-1" stroke="none" stroke-width="1" fill="none" fill-rule="evenodd">
        <g id="Home" transform="translate(-746.000000, -2175.000000)" fill="#FFFFFF">
            <g id="social" transform="translate(575.000000, 2173.000000)">
                <path d="M201.211472,8.80818497 C201.224764,9.10545396 201.232015,9.40513977 201.232015,9.70482559 C201.232015,18.8295336 194.288488,29.3475389 181.584468,29.3475389 C177.684927,29.3475389 174.054862,28.2080077 171,26.2479658 C171.54016,26.3120116 172.089986,26.3446387 172.647064,26.3446387 C175.883187,26.3446387 178.859502,25.2401515 181.223153,23.3888665 C178.202127,23.3332796 175.651172,21.3369854 174.772658,18.5926851 C175.193185,18.6724402 175.627004,18.7171514 176.070491,18.7171514 C176.700073,18.7171514 177.311528,18.6349795 177.890357,18.4766777 C174.731572,17.8434706 172.352211,15.0532506 172.352211,11.7059534 C172.352211,11.6769516 172.352211,11.6467413 172.35342,11.6189479 C173.283896,12.1349392 174.348506,12.4467091 175.479578,12.481753 C173.628293,11.245549 172.409007,9.13083058 172.409007,6.7357609 C172.409007,5.46934665 172.74857,4.28268751 173.343108,3.26278901 C176.747201,7.44147265 181.837026,10.1893982 187.574559,10.4794167 C187.456135,9.97309273 187.396923,9.44743414 187.396923,8.90485781 C187.396923,5.09232257 190.488037,2 194.300572,2 C196.287199,2 198.079272,2.83863691 199.340852,4.17997261 C200.915411,3.87061951 202.389672,3.29783292 203.727383,2.50390719 C203.207766,4.11713526 202.116571,5.46934665 200.687022,6.32490131 C202.085153,6.15814066 203.419238,5.78836703 204.653025,5.23854024 C203.732216,6.62096189 202.561266,7.83783131 201.211472,8.80818497 L201.211472,8.80818497 Z" id="Shape"></path>
            </g>
        </g>
    </g>
</svg>