<?xml version="1.0" encoding="UTF-8" standalone="no"?>
<svg width="30px" height="25px" viewBox="0 0 30 25" version="1.1" xmlns="http://www.w3.org/2000/svg" xmlns:xlink="http://www.w3.org/1999/xlink">
    <!-- Generator: Sketch 3.7.1 (28215) - http://www.bohemiancoding.com/sketch -->
    <title>Shape</title>
    <desc>Created with Sketch.</desc>
    <defs></defs>
    <g id="Page-1" stroke="none" stroke-width="1" fill="none" fill-rule="evenodd">
        <g id="Home" transform="translate(-661.000000, -2176.000000)" fill="#FFFFFF">
            <g id="social" transform="translate(575.000000, 2173.000000)">
                <path d="M100.57,15.156875 C100.55625,15.156875 100.540625,15.15625 100.52625,15.155625 C100.51125,15.15625 100.495625,15.156875 100.481875,15.156875 C96.75875,15.156875 93.478125,14.214375 91.539375,15.994375 C90.3775,17.0625 89.888125,18.349375 89.888125,19.735 C89.888125,25.523125 94.525625,26.23375 100.48125,26.23375 L100.57,26.23375 C106.525625,26.23375 111.163125,25.5225 111.163125,19.735 C111.163125,18.34875 110.67375,17.0625 109.511875,15.994375 C107.573125,14.214375 104.293125,15.156875 100.57,15.156875 L100.57,15.156875 Z M95.50625,23.06625 C94.373125,23.06625 93.454375,21.79375 93.454375,20.224375 C93.454375,18.655 94.373125,17.383125 95.50625,17.383125 C96.639375,17.383125 97.559375,18.655 97.559375,20.224375 C97.559375,21.79375 96.639375,23.06625 95.50625,23.06625 L95.50625,23.06625 Z M105.545625,23.06625 C104.411875,23.06625 103.4925,21.79375 103.4925,20.224375 C103.4925,18.655 104.411875,17.383125 105.545625,17.383125 C106.678125,17.383125 107.5975,18.655 107.5975,20.224375 C107.5975,21.79375 106.67875,23.06625 105.545625,23.06625 L105.545625,23.06625 Z M103.2625,27.62875 C102.725,27.62875 101.65625,27.63 100.52625,27.63125 C99.395625,27.63 98.32625,27.62875 97.789375,27.62875 C95.4125,27.62875 86,27.446875 86,16.100625 C86,13.49 86.895,11.58 88.359375,9.989375 C88.125625,9.4125 88.11375,6.13625 89.360625,3 C89.360625,3 92.220625,3.31375 96.548125,6.283125 C97.455,6.0325 98.990625,5.9075 100.52625,5.9075 C102.060625,5.9075 103.59625,6.031875 104.504375,6.283125 C108.83125,3.31375 111.690625,3 111.690625,3 C112.9375,6.13625 112.92625,9.4125 112.6925,9.989375 C114.1575,11.58 115.0525,13.490625 115.0525,16.100625 C115.0525,27.446875 105.639375,27.62875 103.2625,27.62875 L103.2625,27.62875 Z" id="Shape"></path>
            </g>
        </g>
    </g>
</svg>