<?xml version="1.0" encoding="UTF-8" standalone="no"?>
<svg width="30px" height="30px" viewBox="0 0 30 30" version="1.1" xmlns="http://www.w3.org/2000/svg" xmlns:xlink="http://www.w3.org/1999/xlink">
    <!-- Generator: Sketch 3.7.1 (28215) - http://www.bohemiancoding.com/sketch -->
    <title>Shape</title>
    <desc>Created with Sketch.</desc>
    <defs></defs>
    <g id="Page-1" stroke="none" stroke-width="1" fill="none" fill-rule="evenodd">
        <g id="Home" transform="translate(-835.000000, -2174.000000)" fill="#FFFFFF">
            <g id="social" transform="translate(575.000000, 2173.000000)">
                <path d="M287,1 L263,1 C261.35,1 260,2.35 260,4 L260,28 C260,29.65 261.35,31 263,31 L287,31 C288.65,31 290,29.65 290,28 L290,4 C290,2.35 288.65,1 287,1 L287,1 Z M269,26.5 L264.5,26.5 L264.5,13 L269,13 L269,26.5 L269,26.5 Z M266.75,10.45 C265.25,10.45 264.05,9.25 264.05,7.75 C264.05,6.25 265.25,5.05 266.75,5.05 C268.25,5.05 269.45,6.25 269.45,7.75 C269.45,9.25 268.25,10.45 266.75,10.45 L266.75,10.45 Z M285.5,26.5 L281,26.5 L281,18.55 C281,17.3500588 279.95,16.3 278.75,16.3 C277.55,16.3 276.5,17.3500588 276.5,18.55 L276.5,26.5 L272,26.5 L272,13 L276.5,13 L276.5,14.8 C277.25,13.6 278.9,12.7 280.25,12.7 C283.1,12.7 285.5,15.1 285.5,17.95 L285.5,26.5 L285.5,26.5 Z" id="Shape"></path>
            </g>
        </g>
    </g>
</svg>