<?xml version="1.0" encoding="UTF-8" standalone="no"?>
<svg width="31px" height="32px" viewBox="0 0 31 32" version="1.1" xmlns="http://www.w3.org/2000/svg" xmlns:xlink="http://www.w3.org/1999/xlink">
    <!-- Generator: Sketch 3.7.1 (28215) - http://www.bohemiancoding.com/sketch -->
    <title>Shape</title>
    <desc>Created with Sketch.</desc>
    <defs></defs>
    <g id="Page-1" stroke="none" stroke-width="1" fill="none" fill-rule="evenodd">
        <g id="Home" transform="translate(-575.000000, -2173.000000)" fill="#FFFFFF">
            <g id="social" transform="translate(575.000000, 2173.000000)">
                <path d="M16.464,0.41480492 C15.61,-0.15019508 14.496,-0.13719508 13.655,0.44880492 L1.071,9.21380492 C0.4,9.68180492 0,10.4468049 0,11.2658049 L0,20.7098049 C0,21.5498049 0.421,22.3328049 1.122,22.7958049 L13.912,31.2508049 C14.748,31.8038049 15.834,31.8038049 16.67,31.2508049 L29.714,22.6328049 C30.414,22.1698049 30.836,21.3868049 30.836,20.5468049 L30.836,11.2678049 C30.836,10.4288049 30.415,9.64580492 29.715,9.18280492 L16.464,0.41480492 L16.464,0.41480492 Z M26.207,10.6448049 L21.386,13.8818049 L16.865,10.5938049 L16.836,4.12680492 L26.207,10.6448049 L26.207,10.6448049 Z M13.565,4.13280492 L13.565,10.4618049 L8.932,13.7018049 L4.311,10.6028049 L13.565,4.13280492 L13.565,4.13280492 Z M3.044,13.7218049 L6.035,15.7258049 L3.044,17.8188049 L3.044,13.7218049 L3.044,13.7218049 Z M13.644,27.2148049 L4.313,20.9568049 L8.974,17.6988049 L13.644,20.8318049 L13.644,27.2148049 L13.644,27.2148049 Z M11.872,15.6738049 L14.893,13.5608049 L18.412,15.8738049 L15.293,17.9688049 L11.872,15.6738049 L11.872,15.6738049 Z M16.94,27.2148049 L16.94,20.8298049 L21.403,17.8388049 L26.208,20.9978049 L16.94,27.2148049 L16.94,27.2148049 Z M27.54,17.9268049 L24.372,15.8448049 L27.54,13.7198049 L27.54,17.9268049 L27.54,17.9268049 Z" id="Shape"></path>
            </g>
        </g>
    </g>
</svg>